<?xml version="1.0" encoding="utf-8"?>
<!-- Generator: Adobe Illustrator 21.0.0, SVG Export Plug-In . SVG Version: 6.00 Build 0)  -->
<svg version="1.1" id="图层_1" xmlns="http://www.w3.org/2000/svg" xmlns:xlink="http://www.w3.org/1999/xlink" x="0px" y="0px"
	 viewBox="0 0 200 200" style="enable-background:new 0 0 200 200;" xml:space="preserve">
<style type="text/css">
	.st0{fill:#DB539E;}
</style>
<path class="st0" d="M152.1,25.1L77.3,100l75.8,75.8l0,0c2.5,2.6,4,6.1,4,9.9c0,7.9-6.4,14.3-14.3,14.3c-3.8,0-7.3-1.5-9.9-4l0,0
	l-85.7-85.7l0,0c-2.7-2.6-4.4-6.2-4.4-10.3c0,0,0,0,0,0c0,0,0,0,0,0c0-4,1.7-7.7,4.4-10.3l0,0L132.9,4l0,0c2.6-2.5,6-4,9.9-4
	c7.9,0,14.3,6.4,14.3,14.3C157.1,18.6,155.2,22.5,152.1,25.1z"/>
</svg>
